# xmcd CD database file
#
# Track frame offsets:
#	150
#	9400
#	25020
#	40818
#	55698
#	73368
#	80808
#	99380
#	117565
#	134305
#	144993
#	162613
#	174165
#	187815
#	204013
#
# Disc length: 2897 seconds
#
# Revision: 0
# Processed by: cddbd v1.4PL0 Copyright (c) Steve Scherf et al.
# Submitted via: CDex 1.50Beta7
#
DISCID=c30b4f0f
DTITLE=james hersch - innerweather
DYEAR=1900
DGENRE=Jazz
TTITLE0=cause i have you
TTITLE1=paper route
TTITLE2=natalie's kitchen
TTITLE3=falling in love at sixteen
TTITLE4=sunday morning
TTITLE5=la mama
TTITLE6=slender thread of faith
TTITLE7=it's only lonely sometimes
TTITLE8=traveling evangelist
TTITLE9=baby too early
TTITLE10=bottom lines
TTITLE11=sideways
TTITLE12=pictures on the wall
TTITLE13=jana's dad
TTITLE14=smilin' jack
EXTD=
EXTT0=
EXTT1=
EXTT2=
EXTT3=
EXTT4=
EXTT5=
EXTT6=
EXTT7=
EXTT8=
EXTT9=
EXTT10=
EXTT11=
EXTT12=
EXTT13=
EXTT14=
PLAYORDER=
